<svg xmlns="http://www.w3.org/2000/svg" viewBox="0 0 70 70"><path fill="#ffffff" d="M35 68.6C16.5 68.6 1.4 53.5 1.4 35S16.5 1.4 35 1.4 68.6 16.5 68.6 35 53.5 68.6 35 68.6zm0-65C17.7 3.6 3.6 17.7 3.6 35c0 17.3 14.1 31.4 31.4 31.4 17.3 0 31.4-14.1 31.4-31.4C66.4 17.7 52.3 3.6 35 3.6z"/><path fill="#ffffff" d="M28.8 42.9l-.9.9c-.1.1-.3.2-.4.2s-.3-.1-.4-.2l-8.4-8.4c-.1-.1-.2-.3-.2-.4 0-.2.1-.3.2-.4l8.4-8.4c.1-.1.3-.2.4-.2s.3.1.4.2l.9.9c.1.1.2.3.2.4 0 .2-.1.3-.2.4L21.7 35l7.1 7.1c.1.1.2.3.2.4 0 .2-.1.3-.2.4zm10.7-19.2L32.7 47c0 .2-.1.3-.3.4-.1.1-.3.1-.4 0l-1.1-.4c-.2 0-.3-.1-.4-.3-.1-.1-.1-.3 0-.4L37.3 23c0-.2.1-.3.3-.4.1-.1.3-.1.4 0l1.1.3c.2 0 .3.1.4.3v.5zm11.8 11.7l-8.4 8.4c-.1.1-.3.2-.4.2-.2 0-.3-.1-.4-.2l-.9-.9c-.1-.1-.2-.3-.2-.4 0-.2.1-.3.2-.4l7.1-7.1-7.1-7.1c-.1-.1-.2-.3-.2-.4 0-.2.1-.3.2-.4l.9-.9c.1-.1.3-.2.4-.2.2 0 .3.1.4.2l8.4 8.4c.1.1.2.3.2.4 0 .2-.1.3-.2.4z" /></svg>